<svg xmlns="http://www.w3.org/2000/svg" width="134.357" height="159.058" viewBox="0 0 134.357 159.058">
  <g id="logo" transform="translate(-1378 -1421.905)">
    <path id="Path_54" data-name="Path 54" d="M0,0H134.357V159.058H0Z" transform="translate(1378 1421.905)" fill="#3aab98"/>
    <g id="Group_70" data-name="Group 70" transform="translate(1378 1421.905)">
      <path id="Subtraction_13" data-name="Subtraction 13" d="M0,159.058V90.52c2.7,10.877,24.3,17.226,43.357,22.828l.005,0c8.084,2.376,15.72,4.621,21.337,7.031,6.291,2.7,9.205,5.245,9.17,8.011-.046,3.636-5.359,7.681-16.243,12.368C45.569,145.953,26.719,151.938,0,159.058Zm134.357-58.906h0v0c-12.691-8.9-30.726-11.145-46.638-13.122-7.768-.965-15.105-1.877-21.387-3.458-7.047-1.773-11.766-4.139-14.85-7.446-2.359-2.95-2.851-6.891-1.463-11.716,2.756-9.576,12.769-21.743,27.47-33.381a185.052,185.052,0,0,1,25.617-16.891A205.4,205.4,0,0,1,134.357.2ZM0,61.069H0V0H89.371C70.3,2.165,54.9,7,43.6,14.37,18.855,30.5,4.579,42.719,0,61.069Z" fill="#132320"/>
    </g>
  </g>
</svg>
