<svg id="shopping-cart" xmlns="http://www.w3.org/2000/svg" width="17.716" height="15.571" viewBox="0 0 17.716 15.571">
  <path id="Path_4" data-name="Path 4" d="M5.708,10.381h9.413a.519.519,0,0,0,.5-.376L17.7,2.738a.519.519,0,0,0-.5-.662H4.511L4.14.407A.519.519,0,0,0,3.633,0H.519a.519.519,0,1,0,0,1.038h2.7L5.091,9.471a1.557,1.557,0,0,0,.619,2.986h9.412a.519.519,0,1,0,0-1.038H5.709a.519.519,0,0,1,0-1.038Zm10.8-7.267-1.78,6.228h-8.6L4.741,3.114Zm0,0" transform="translate(0 0)" fill="#fff"/>
  <path id="Path_5" data-name="Path 5" d="M150,361.557A1.557,1.557,0,1,0,151.557,360,1.559,1.559,0,0,0,150,361.557Zm1.557-.519a.519.519,0,1,1-.519.519A.52.52,0,0,1,151.557,361.038Zm0,0" transform="translate(-144.81 -347.543)" fill="#fff"/>
  <path id="Path_6" data-name="Path 6" d="M362,361.557A1.557,1.557,0,1,0,363.557,360,1.559,1.559,0,0,0,362,361.557Zm1.557-.519a.519.519,0,1,1-.519.519A.52.52,0,0,1,363.557,361.038Zm0,0" transform="translate(-349.474 -347.543)" fill="#fff"/>
</svg>
