<?xml version="1.0" standalone="no"?>
<!DOCTYPE svg PUBLIC "-//W3C//DTD SVG 20010904//EN"
 "http://www.w3.org/TR/2001/REC-SVG-20010904/DTD/svg10.dtd">
<svg version="1.0" xmlns="http://www.w3.org/2000/svg"
 width="636.000000pt" height="636.000000pt" viewBox="0 0 636.000000 636.000000"
 preserveAspectRatio="xMidYMid meet">
<metadata>
Created by potrace 1.11, written by Peter Selinger 2001-2013
</metadata>
<g transform="translate(0.000000,636.000000) scale(0.100000,-0.100000)"
fill="#000000" stroke="none">
<path d="M501 5138 c0 -673 4 -1214 9 -1203 4 11 22 66 40 122 39 125 137 328
217 448 236 356 597 680 1258 1127 322 218 456 294 701 396 342 143 807 259
1249 312 49 6 91 13 94 16 2 2 -800 4 -1782 4 l-1787 0 1 -1222z"/>
<path d="M5705 6301 c-873 -334 -1620 -763 -2260 -1297 -170 -141 -467 -439
-585 -584 -291 -359 -431 -686 -391 -915 28 -157 125 -266 326 -368 219 -110
504 -174 1120 -252 441 -56 698 -94 860 -126 473 -93 791 -211 1068 -393 l27
-18 0 2006 c0 1103 -3 2006 -7 2005 -5 0 -75 -27 -158 -58z"/>
<path d="M501 1373 c-1 -1206 1 -1373 14 -1373 23 0 598 159 910 251 738 219
1220 392 1560 559 261 128 400 232 451 336 67 137 -16 248 -281 375 -170 81
-367 149 -918 314 -952 285 -1249 404 -1512 610 -105 82 -160 152 -213 275 -8
18 -11 -353 -11 -1347z"/>
</g>
</svg>
